/* XPM */
static char *_727b9c96c614e268eca9cfe95e79d743wSsN2ifZU2c7Mwu[] = {
/* columns rows colors chars-per-pixel */
"64 64 243 2 ",
"   c None",
".  c #2F2B30",
"X  c #300B2C",
"o  c #41303C",
"O  c #580E4B",
"+  c #5E1357",
"@  c #50114A",
"#  c #67135B",
"$  c #691259",
"%  c #463544",
"&  c #573853",
"*  c #532C4E",
"=  c #632B5E",
"-  c #6B1966",
";  c #771669",
":  c #7B1A73",
">  c #712668",
",  c #773971",
"<  c #703267",
"1  c #564455",
"2  c #794A73",
"3  c #73506D",
"4  c #61445D",
"5  c #881A77",
"6  c #8B1975",
"7  c #83287E",
"8  c #883175",
"9  c #85477C",
"0  c #7E3098",
"q  c #8C1E84",
"w  c #981F89",
"e  c #A31F86",
"r  c #8A2585",
"t  c #93248B",
"y  c #832E9B",
"u  c #8A2B99",
"i  c #9A2597",
"p  c #88339A",
"a  c #93369D",
"s  c #9C339E",
"d  c #903586",
"f  c #A6228C",
"g  c #A6249B",
"h  c #B42597",
"j  c #AE379B",
"k  c #8B2BA4",
"l  c #9A2BA3",
"z  c #932BAA",
"x  c #9829A6",
"c  c #9334A2",
"v  c #9C39A5",
"b  c #9D38A6",
"n  c #9D2AB3",
"m  c #8C30A1",
"M  c #A22BA3",
"N  c #AC2AA5",
"B  c #AA27A7",
"V  c #BC27A3",
"C  c #B32BA4",
"Z  c #B32BAB",
"A  c #BB2AAC",
"S  c #B628A5",
"D  c #AB3CAC",
"F  c #A636A7",
"G  c #B837AB",
"H  c #A429B4",
"J  c #AB2ABD",
"K  c #A82AB7",
"L  c #B32AB2",
"P  c #BC2AB3",
"I  c #B72BBC",
"U  c #B43CB2",
"Y  c #BC3CB3",
"T  c #BD33B2",
"R  c #AC3EB0",
"E  c #C3289E",
"W  c #CB2BAD",
"Q  c #C729A7",
"!  c #D82CAB",
"~  c #C936AD",
"^  c #C52CB4",
"/  c #C32CBC",
"(  c #CC2DB5",
")  c #D42EB5",
"_  c #DA2EB8",
"`  c #C739B7",
"'  c #DB34BD",
"]  c #D739B7",
"[  c #D630AF",
"{  c #E32FB9",
"}  c #E62FB2",
"|  c #E431BC",
" . c #EB32BC",
".. c #E635B9",
"X. c #F333BC",
"o. c #F733BA",
"O. c #E52DAE",
"+. c #964188",
"@. c #94548B",
"#. c #A8479A",
"$. c #A45C99",
"%. c #95628D",
"&. c #A8649D",
"*. c #B95AA8",
"=. c #B442B3",
"-. c #BB43B4",
";. c #BB44B9",
":. c #BE49BA",
">. c #B14CA8",
",. c #AD62A1",
"<. c #BC69AA",
"1. c #C444BB",
"2. c #CB44BC",
"3. c #C44BBC",
"4. c #CA4BBE",
"5. c #C143B5",
"6. c #D344BB",
"7. c #D944BE",
"8. c #D65CBD",
"9. c #C553B2",
"0. c #CB67B4",
"q. c #B42CC4",
"w. c #BA2DC6",
"e. c #BC2ECA",
"r. c #B72EC9",
"t. c #AD2BC1",
"y. c #C52EC3",
"u. c #C32FCB",
"i. c #CB2EC5",
"p. c #CC30CD",
"a. c #C834C6",
"s. c #D43CC4",
"d. c #DC3CC3",
"f. c #D736C8",
"g. c #CC32D5",
"h. c #C831D3",
"j. c #D434D3",
"k. c #DA34DB",
"l. c #D534D8",
"z. c #D82FC1",
"x. c #E432C3",
"c. c #EC33C4",
"v. c #EC3CC3",
"b. c #ED34CC",
"n. c #E538C8",
"m. c #F334C2",
"M. c #FB35C4",
"N. c #F335CD",
"B. c #FD36CC",
"V. c #F33BCB",
"C. c #FD3BCC",
"Z. c #F43BC5",
"A. c #EE35D1",
"S. c #E83BD6",
"D. c #F236D2",
"F. c #F536D3",
"G. c #FB37D3",
"H. c #F539D5",
"J. c #FD3AD4",
"K. c #F539DA",
"L. c #FD3BDC",
"P. c #F537D9",
"I. c #FE3CE4",
"U. c #FE3DEC",
"Y. c #F63EE5",
"T. c #FE3DF3",
"R. c #CB4CC3",
"E. c #C848C2",
"W. c #D34CC3",
"Q. c #DB4CC5",
"!. c #DB43CC",
"~. c #DD4BCA",
"^. c #D845C5",
"/. c #CD51C3",
"(. c #D252C6",
"). c #D454CA",
"_. c #DB54CC",
"`. c #DB59CD",
"'. c #D954C7",
"]. c #DD47D2",
"[. c #DF5CD0",
"{. c #E344CC",
"}. c #E44BCB",
"|. c #EB4CCC",
" X c #E945C6",
".X c #F343CB",
"XX c #F34BCE",
"oX c #FA42CA",
"OX c #E354CC",
"+X c #EC52CE",
"@X c #E15ACE",
"#X c #E558CA",
"$X c #F357CC",
"%X c #F645D3",
"&X c #FB42D4",
"*X c #F44BD4",
"=X c #F646DD",
"-X c #FC42DD",
";X c #F54CDC",
":X c #FC4CDD",
">X c #FE4FD7",
",X c #E45DD3",
"<X c #EC5DD5",
"1X c #ED5CDB",
"2X c #EA57D2",
"3X c #F353D4",
"4X c #F25CD4",
"5X c #F453DC",
"6X c #F45BDC",
"7X c #FB52D9",
"8X c #ED44D0",
"9X c #DD68C5",
"0X c #E564CB",
"qX c #EC62D5",
"wX c #EC62DB",
"eX c #EE6DDD",
"rX c #F265D4",
"tX c #F363DC",
"yX c #F36CDC",
"uX c #F66BD8",
"iX c #F672DB",
"pX c #EF70DD",
"aX c #FC43E4",
"sX c #F54CE3",
"dX c #FD43EC",
"fX c #F54BEC",
"gX c #FA48E7",
"hX c #FC44F2",
"jX c #F64AF3",
"kX c #FB45F8",
"lX c #F455E2",
"zX c #F768E2",
"xX c #F779E5",
"cX c #F986E9",
"vX c #FB9BEE",
"bX c #FE9AF2",
"nX c #FDA5F5",
"mX c #FEB7F9",
"MX c #FEC2FC",
"NX c #FFCCFD",
"BX c #FFD6FE",
"VX c #FFE6FF",
"CX c #FFF6FF",
/* pixels */
"                                                                                                                                ",
"                                                                                            O $ ; 6 6 -                         ",
"                                                                                $ $ $ 6 6 6 f h h Q h w $                       ",
"                                                                          O - 6 6 h E !  .c.N.B.G.G.N.E $                       ",
"                                                                    O $ 6 f Q !  .m.M.N.G.G.G.I.L.I.P.W $                       ",
"                                                                + 5 e E !  .M.B.B.G.B.G.G.G.P.P.P.L.G.W :                       ",
"                                                            ; 5 f Q { m.M.M.B.B.B.N.N.N.F.F.D.F.P.L.G.) 6                       ",
"                                                        - : g ( { m.m.m.c.m.c.N.N.N.b.b.b.b.b.D.F.G.G.{ 6                       ",
"                                                    O ; f Q _ c.m.X.X. .c.c.m.c.N.b.b.b.b.b.b.b.D.G.J.c.f *                     ",
"                                                  $ q V _ x. .{ {  . .c.c.c.c.c.b.b.b.b.b.b.A.A.D.G.J.N.h #                     ",
"                                              @ : f Q _ x.{ { { { {  .m.c.c.c.c.b.b.b.b.b.b.b.b.D.G.J.N.j >                     ",
"                                            # q h ) { x.{ x.x.x.x.c.c.c.c.c.b.c.b.b.b.b.b.b.b.A.D.G.J.Z.~ 8                     ",
"                                          ; i W _ { { x.x.x.x.z.x.b.b.b.c.b.c.A.b.b.b.A.b.b.A.A.D.P.G.J.] d .                   ",
"                                      + q P _ ' { { x.x.n.b.n.n.b.b.A.b.b.b.b.N.D.A.D.D.A.A.b.b.A.P.G.J. X#.*                   ",
"                                    - w / n.x._ { x.A.A.S.S.S.H.P.P.P.A.b.A.N.F.D.H.P.P.P.A.A.N.N.F.G.G..Xj =                   ",
"                                  - i ^ z.x.{ x.b.A.K.Y.Y.Y.U.U.Y.I.Y.P.P.D.H.H.H.K.K.K.P.D.P.D.N.F.G.L.%X~ <                   ",
"                                - i / z.| | c.D.H.L.I.I.dXT.T.T.U.U.aXaX-XL.L.K.K.K.K.L.P.P.G.F.F.G.G.L.I.] ,                   ",
"                              - g / z.z.x.N.K.L.L.L.L.I.U.U.U.dXdXdXdXdXdXaX-XL.-XL.I.L.I.G.G.F.F.G.G.L.U.d.+.o                 ",
"                            - i P ( ) z.b.H.F.G.B.J.J.L.L.I.aXdXhXhXhXhXhXdXaX-X-X-X-XL.L.L.L.J.G.G.G.I.T.fX=.&                 ",
"                          - i P ^ ^ ) n.b.N.m.N.B.B.J.J.L.-XaXdXdXhXkXhXhXdXdXaX-X-XL.L.L.L.G.L.L.G.G.I.kXjX/.2                 ",
"                        - t S P A W _ x.c.c.m.N.B.C.J.J.&XL.aXdXjXhXjXjXjXfXgXaX-X-X-XL.L.L.L.L.L.L.L.I.T.T.].+.                ",
"                      * r S A S V W ) { c.c.m.V.C.&X&X&X=X=XgXgXfXjXjXjXjXfXgXgX-X-X-X-X-XL.L.L.L.L.L.I.T.T.k.#.&               ",
"                      7 Z P S S Q ( ) ' c.c.V.V.&XJ.&X%X=X=XsXgXfXjXjXfXfXfXgX=X=X=X-X-XL.-XL.L.L.L.L.L.T.T.T.;.=               ",
"                    : N P B g V W ( ] x.x.v.V.V.H.&X&X%X%X%X;XsXsXlXfXsXsXsXsX;X=X=X:X-X-X-X-XL.L.L.L.L.I.T.T.s.,               ",
"                  - M / Z g S A ^ ) ' ' n. XV.V.%X%X%X%X*X*X;X;X;XlXsXsX5XsX;X;XsXlX:XgX:X-XL.L.L.L.L.L.I.I.dX{.+.%             ",
"                  i I I B g S A ^ ) ' d.n.v..X%X%X*X*X*X*X*X5X;X;X5X5X;X5X5X5X6XzXzXzX6X7X-X-XL.L.L.L.L.G.L.I.8X#.&             ",
"                : L y.B i B A ~ ( ] ] d.n. XXX*X3X5X3X*X3X*X*X5X5XlX5X5XlX6XzXzXxXcXcXxXzX7XgX-XL.L.L.L.I.L.L.%X5.4             ",
"              + g u.I i g C A ^ ` s.] n. XXX3X4XtXtX6X6X5X3X3X3X3X6X6X5X6XzXxXcXnXnXnXnXcXzX7XaXI.L.L.L.L.L.L.L.7.8             ",
"              7 y.h.K i g A P ` ] s.s.{.|.3XrXuXuXyXtXtX7X3X3X1X3X1X1X1XtXxXcXnXMXBXBXMXnXcX6X:XL.L.L.L.L.L.G.I.+X+..           ",
"            # g j.u.H l B A ` ` s.s.!.{.|.qXuXiXiXiXuXtX4X4X<X2X1X1X1X1XeXxXvXmXBXVXVXVXmXbXzXgXL.L.L.L.L.L.I.L.XX#.3           ",
"            : I l.e.M l Z T ` a.s.d.].{.+X4XuXiXiXiXuXrX4X4X<X1X1X1XwXwXeXcXnXMXVXCXCXCXNXnXzXlX=XL.L.L.L.L.L.L.*X9.9           ",
"          X r p.l.t.x B Z T ` f.d.!.!.{.OX<XrXuXiXiXuXrX4X<X1X<X1X1XwXwXeXcXvXMXVXCXCXVXMXbXxX5X=X-XL.I.I.L.L.L.:X8.$.          ",
"          @ l k.g.H l M L T a.s.!.!.!.~.}.OXqXrXuXrXqXqX<X<X<X1X1XwXwXwXeXcXvXnXNXBXVXNXmXcXzXsX=X-XI.I.I.I.I.L.aX#X&.          ",
"          - L l.u.H l M D Y ` s.!.!.~.~.~.OX#X2X<X<X<X<X<X<XqXqXwXwXwXwXeXpXcXnXmXmXMXmXbXcXzX;X=XaXaXdXU.U.I.L.:X0X&.          ",
"          r / l.e.n x M Z Y ` E.E.!.^.~._.~.OXOX@X2X2X<X<X<X<XqX1XwXwXwXeXeXpXcXvXnXbXvXcXzX1X;X=XaXdXU.T.U.U.L.gX0X,.          ",
"          g g.g.q.H x M F U Y ` 2.^.W.Q.~._._.OXOX,X<X<X<X<XqXqXwXwXwX1X,XeXeXcXcXcXcXxXzX6X6X;X=XgXdXT.T.T.I.L.:XqX,.          ",
"          Z l.g.q.H x l F U ` 1.` W.W.^._._._.OX@XOX,X<X,XwXqXqXqXqXqXqXwXwXwXeXpXxXyXzXtX5X5X;X=XaXdXU.T.T.I.L.:X0X,.          ",
"          L l.g.q.H l l N U Y ` 1.E.W.^.~._._.OX`.,X,X2X,X0X1XqXqXqXqXqX0XwX0XwXwXwX1X6X5X7X*X;X=XsXaXdXT.U.I.L.7XqX,.          ",
"          L k.g.q.K l l M U Y Y 1.4.W.W.Q.)._.`.[.[.,X,XqXwXqXqXqXqXqXqXqXqX,XwX1X1X1X6X5X3X*X*X%X=X-XI.U.I.I.L.:X0X&.          ",
"          P k.g.w.K n c b U U Y 1.4.6.W.Q.).).`.`.[.,X[.,X,XqXwXqXqXqXqXqX<XwX<X2X1X1X3X5X3X*X*X%XK.L.I.I.I.G.G.7X0X&.          ",
"          L k.l.r.t.n z v D U ;.1.2.E.W.W.)._._.`.`.[.,XwX,XwX,XqXqXqXqX<XqX1X<X<X<X6X5X3X3X*X%X%X&XJ.L.L.J.J.B.7X9X%.          ",
"          Z k.g.r.r.n v c F U Y 1.1.R.W.(.).)._.`.`.[.[.,X,X,XwXqXwXqXqXqXqXqX<X<X<X1X3X3X*X*X*X&X&XJ.J.G.J.B.B.4X0.%.          ",
"          l g.g.r.r.J z c b R =.;.E.E.W.W.).).).`.`.`.9X,X,X,XwX<XqXqXqX<X<X<X<X2X<X2X3X3X*X*X%XoXJ.B.B.J.B.C.oXrX0.3           ",
"          r a.l.r.r.t.n c b F U ;.1.E.R.).).).).).).`.`.[.[.,X,X<XqX<XqX<X<X2X4X3X3X3X3X*X*XXX%XoXC.B.B.B.B.oXoXrX%.o           ",
"          > Z l.h.r.r.n z c v R U ;.E.R.E.).).(.).9X).`.[.0X[.,XqX,XqX<X<X<X<X<X<X3X3X*XXXXXoXoXC.C.C.C.oXM.C.>X9X3 .           ",
"          @ i j.l.e.r.t.z y c =.R ;.E.E.E.R.R.R.(.).).`.`.`.`.,X,X,X<X<X<X2X2X<X2X+X$XXXXXXX.XoXC.M.M.M.M.M.oX$X<.3             ",
"            7 i.l.e.r.t.n m m v R q.;.:.3.E.R././.(.).).).`.`.@X,X,X@X2X,X2X2X+X+X+XXXXXoX.X.X.XV.M.M.M.o.o.oX8.%.1             ",
"            > Z l.e.r.r.t.z y p v =.=.;.:.:.3.R././.(.(.).`.`.`.`._.OXOXOXOX+X+X+XXX|.|..X.XZ.X.m.M.o.o.o.o.$X0.3               ",
"              t p.g.e.r.t.n k p a v =.=.=.=.:.:././././.(.(.'.`._._._.#X#X_.OX|.XX X X.X.X XZ.m.m.X.X.o.o.v.8.@.1               ",
"              - Z j.h.e.r.J z 0 p a v R =.=.;.:.:.3././.(.(.(.'.'.Q.OXOXOX#X X#X|. X X Xv.v... .X.o.o.} o.|.0.3                 ",
"                r / j.e.r.q.n k 0 p a v R =.=.=.:.:.:.R.4./.(.(.W.'.#XQ.Q.}. X X X X X X ..... ...} O.}  X8.@.                  ",
"                + i i.g.e.r.q.n k 0 p a v v >.=.=.:.:.:.3.2.4.6.6.W.7.Q.7.7.7. XQ..... X....} } } O.O.v.'.$.1                   ",
"                  - B p.h.e.w.J n k y y a v F D =.=.-.-.:.1.2.4.6.6.6.6.7.7.7.7.7.] ..] } } [ O.! O...#X*.3                     ",
"                    : Z p.h.e.q.t.n k y 0 p a v v =.U U -.-.5.5.2.2.6.6.6.6.] ] ] ..] .._ ! ! ! ! ..}.*.2                       ",
"                      : S p.p.e.q.t.n z y y u a v v D >.U -.~ Y 5.` 5.] 6.] ~ ] ] [ ! ! ! Q Q ! ' }.9.9                         ",
"                        : B y.p.e.r.t.K z m y u p a s F F D >.G G Y Y ~ ~ ~ ~ ~ W ~ W E E Q ! f.}.9.@.%                         ",
"                          - g / h.u.w.q.K n x u u u u a s F F C G G G G T ~ V G A V h V Q ) d.~.9.9 %                           ",
"                            # w P i.p.e.q.J H n u u u u u u s M F N C C C C C h V A W ( f.].).>.2                               ",
"                              + 5 B y.p.u.u.w.J K n x z i i l l M M N B N C S A ^ ( s.k.~.:.@.4                                 ",
"                                  # w Z y.p.p.u.w.I J J H H H H H L L L L P / i.j.S.~.E.#.8 *                                   ",
"                                      ; w S / y.i.p.u.u.y.u.u.y.u.u.p.u.p.p.j.!.s.E.#., *                                       ",
"                                          ; 5 w B A ^ i.j.j.l.k.k.k.j.j.f.a.U F d , <                                           ",
"                                              # 5 q w g A ^ i.i.i.i.( Y F d 7 <                                                 ",
"                                                                                                                                "
};
