/* XPM */
static char *_367227481c245c2c1e7e91983a685f0HHffXk05d6yUlOCd[] = {
/* columns rows colors chars-per-pixel */
"64 64 250 2 ",
"   c None",
".  c #090A08",
"X  c #090E13",
"o  c #0D1116",
"O  c #0E131A",
"+  c #12161B",
"@  c #1A1B1D",
"#  c #151819",
"$  c #14140C",
"%  c #231E1A",
"&  c #271D0A",
"*  c #29221A",
"=  c #3A3317",
"-  c #342A0F",
";  c #091A25",
":  c #141B23",
">  c #1A1D23",
",  c #161E28",
"<  c #211F21",
"1  c #1C222C",
"2  c #192229",
"3  c #1C2632",
"4  c #1A2938",
"5  c #0F2C30",
"6  c #222224",
"7  c #24262C",
"8  c #292A2C",
"9  c #26282B",
"0  c #373328",
"q  c #232A34",
"w  c #2C2D33",
"e  c #242D3B",
"r  c #242A36",
"t  c #2D323C",
"y  c #2D3638",
"u  c #333134",
"i  c #33353B",
"p  c #39383C",
"a  c #2A3127",
"s  c #4A3A17",
"d  c #4F3A0F",
"f  c #433E3A",
"g  c #423C27",
"h  c #683D09",
"j  c #334718",
"k  c #374438",
"l  c #386C3C",
"z  c #584518",
"x  c #514516",
"c  c #76520E",
"v  c #684A18",
"b  c #775516",
"n  c #664F13",
"m  c #4B472C",
"M  c #554B2B",
"N  c #484739",
"B  c #584A35",
"V  c #555235",
"C  c #695C29",
"Z  c #6F5C31",
"A  c #48752F",
"S  c #766428",
"D  c #766732",
"F  c #6D6430",
"G  c #76601C",
"H  c #0E2C49",
"J  c #162E46",
"K  c #183449",
"L  c #0E3456",
"P  c #11365C",
"I  c #123A5E",
"U  c #173855",
"Y  c #243243",
"T  c #2B3443",
"R  c #273B4A",
"E  c #353943",
"W  c #3C3C44",
"Q  c #343C4C",
"!  c #383C47",
"~  c #253C55",
"^  c #2A3649",
"/  c #0E3861",
"(  c #133B64",
")  c #163E68",
"_  c #413F44",
"`  c #18435D",
"'  c #1E584B",
"]  c #3E414B",
"[  c #374748",
"{  c #264558",
"}  c #394555",
"|  c #355645",
" . c #1D4965",
".. c #16416B",
"X. c #1A436D",
"o. c #1C4B6A",
"O. c #184564",
"+. c #1A4672",
"@. c #1B4977",
"#. c #1D5177",
"$. c #0C476D",
"%. c #284968",
"&. c #374C65",
"*. c #385668",
"=. c #224E7D",
"-. c #244B73",
";. c #235273",
":. c #2A527C",
">. c #26547B",
",. c #365577",
"<. c #29506E",
"1. c #43444C",
"2. c #484647",
"3. c #595847",
"4. c #454953",
"5. c #4B4B54",
"6. c #474C58",
"7. c #4C535B",
"8. c #53545E",
"9. c #585658",
"0. c #514E45",
"q. c #675749",
"w. c #685A57",
"e. c #7B614A",
"r. c #736558",
"t. c #495667",
"y. c #545661",
"u. c #595962",
"i. c #565B68",
"p. c #4A5D73",
"a. c #695F61",
"s. c #576275",
"d. c #526171",
"f. c #64646D",
"g. c #7A6965",
"h. c #666876",
"j. c #70717E",
"k. c #8A4A04",
"l. c #855A15",
"z. c #86510B",
"x. c #8D6719",
"c. c #BB7816",
"v. c #AE7517",
"b. c #876821",
"n. c #8E7232",
"m. c #A87924",
"M. c #D97F05",
"N. c #9B754A",
"B. c #896C58",
"V. c #906E53",
"C. c #A67848",
"Z. c #B07E49",
"A. c #857267",
"S. c #BE8018",
"D. c #AC8129",
"F. c #B88C33",
"G. c #96812A",
"H. c #D78D10",
"J. c #CB9434",
"K. c #D9A639",
"L. c #E7B136",
"P. c #E19103",
"I. c #F3C923",
"U. c #978649",
"Y. c #B88449",
"T. c #AA904D",
"R. c #999A76",
"E. c #BBA652",
"W. c #C79445",
"Q. c #CCAF4F",
"!. c #E2B84C",
"~. c #F8D76B",
"^. c #E5CE60",
"/. c #E7C55D",
"(. c #145688",
"). c #225383",
"_. c #2C5C84",
"`. c #2C5B8C",
"'. c #26588B",
"]. c #325B87",
"[. c #285C93",
"{. c #187192",
"}. c #2F618C",
"|. c #34648C",
" X c #2C649A",
".X c #2A6298",
"XX c #3B6C9D",
"oX c #366797",
"OX c #3C739B",
"+X c #1070B2",
"@X c #2D6BA5",
"#X c #336CA4",
"$X c #386CA5",
"%X c #3572AC",
"&X c #3B75AB",
"*X c #3A74A7",
"=X c #3C7AB3",
"-X c #3E7EBA",
";X c #3778B4",
":X c #2872AB",
">X c #486889",
",X c #416A93",
"<X c #527492",
"1X c #777885",
"2X c #687A93",
"3X c #447BAD",
"4X c #4677A5",
"5X c #437CB3",
"6X c #427FBB",
"7X c #4A7EB1",
"8X c #567DA6",
"9X c #187CC6",
"0X c #3D82BD",
"qX c #238C97",
"wX c #66819D",
"eX c #7B8881",
"rX c #5784AB",
"tX c #4583BD",
"yX c #4A84BC",
"uX c #4A82B5",
"iX c #5385B4",
"pX c #5789B8",
"aX c #5F92BA",
"sX c #6386A5",
"dX c #6889A9",
"fX c #648BB2",
"gX c #6B92AC",
"hX c #0B8AC8",
"jX c #3D84C3",
"kX c #3E8BCB",
"lX c #3C88C5",
"zX c #3F90D1",
"xX c #4585C3",
"cX c #4886C3",
"vX c #4689C5",
"bX c #4989C6",
"nX c #458ACA",
"mX c #498BCB",
"MX c #4786C8",
"NX c #5B8EC7",
"BX c #468ED0",
"VX c #4593D4",
"CX c #4A92D3",
"ZX c #4698D8",
"AX c #5595D1",
"SX c #6394CA",
"DX c #6294CC",
"FX c #828496",
"GX c #878E8D",
"HX c #A0A289",
/* pixels */
"                                                                Q.          }.                                                  ",
"                                                                G 3.@.>.'.>.@.                                                  ",
"                                                                n N ` ..#.                                                      ",
"                                                                n V                                                             ",
"                                                                n x.                                                            ",
"                                                                G.D.                                                            ",
"                                                            [.7.S b.                                                            ",
"                                                        0X&X X*.n S 4XlX                                                        ",
"                                            mX      kXjX0XjXkXlXOX<XrXrXrX                                                      ",
"                                        xXmXxXMXjXzXnXjXjXnXlXxXyXrXrXyXxX0X;X                                                  ",
"                                      nXnXMXcXcXcXtXjXjXlXvXpXdXfXbXkXkXkXjXvX0X                                                ",
"                                    '.;XnXMXMXcXbXvXmXjXpXgXrXyXzXzXnX0XjXjXiXrXiXjX                                            ",
"                                    ( @.[.;XxXMXMXcXcXyX7XuXjXBXuXp.>X0XrXrXrXuX0XxXlX                                          ",
"                                    $X&X`.).#XnXmXxXyXtX5X6XBXBX0Xp.|.rXwXuXlX0XjXlXkXlX3X                                      ",
"                                  6XtXcXMX$X).[.-XmXtX$X%XmXBXCXCXCXyXyX;X=X0XVXkXvXiXsXiX0X                                    ",
"                                MXxXuXcXcXtX<X,.).#X;XvX=X%XxXmXCXbXvXyXuXp.p.=XpXfXpXvX0X0X0XjX                                ",
"                              CXCXbXmXmXmXfXdX7X$X-XmXBXmX6X$X=XmXbXcXcXtX>XOXrXpXuXlXVXVXlX0XxXiX                              ",
"                            mXmXbXCXZXmXfXgX6X3XxX7XcXCXCXBXMX=X#XtXcXmXZXCXmXuX*X0X0XlXzXxXrXsXiXbXjX                          ",
"                          tXmXmXMXcXmXgXfXnX-X'.&.i.>XmXCXbXbXbX3XXX&XcXmXmX4X<.|.0X0X0XiXdXiXxXzXkXlXlX                        ",
"                        yXmXZXCXbXcXdX8X=X;X-X=X%.t _.6XcXcXcXbXvXxX=X&XcXyXtX*X%XuXrXfXrXtXkXzXzXkXjXvXlX*X                    ",
"                      ;XtXCXZXCXpXwX4X#X;X-XBXBX&X_.-.'.&X4X4XmXVXmXmXyXtXcXmXcXxXpXaXgXR.HXiXlXkXvXtX&X}.;.                    ",
"                    [.@X%X6XcXpXwX4X%X;XxXxXuXMXmXxX6X}.%.y.p.cXCXyX3XtXmXbXcXtXxXyXR.!.!.L.Q.gX0X&X|.o. . .                    ",
"                    +.)..X#X*X<X&X0X6XMXVXmXxXcXMXMXtX5X,.T <.6XuX,.o..XlXmXbXbXgXeXS F.!.L.!.U.|.;. . .o.o.                    ",
"                    ( ) +.).p._.:X0XxXcXnXCXcXcXMXMXcXxX3XoX].).;.XX&X).).:XuXHX~.~.F.G b.m.l.V o. . . .o.o.                    ",
"                    ( ) ( ) ~ I X. XjXMXcXcXxXvXmXMXtXcXbXNXNX8X4X6XpX2XXX:.R.~.~.~.~.U.x c c [ O.J 5 ` o.o.                    ",
"                  oX+.( / U U P ( ) ).;XxXtXyXyXMXMXBXAXDXSXNX7XtXpXdX7X6X<XQ.~.~.~.K.V x c v y k N 2 } 3.                      ",
"                $XoX} [ P J J L $.+X$.+. XtXtXxXxXxXAXDXDXpXuXcXpXgXiX5X$X,.C T./.J.b m = c v a q.e.D F.U.&X                    ",
"              $XoX,.E C 3.T J L $.hXhX{.$.).%XnXmXNXSXSXiX7X7XfXfXmXcX6X$X`.[ z G b c m d c M p r.W.J.D.n.*XlXlX                ",
"            [.$XXX:.T B n.Z [ H / (.{ qX$.L +.%XDXDXNXyX7X4XsXrXmXnXBXVXcX%Xo.a d c c 0 d x.F.A.eXT.m.n.3.OXkXlX%X              ",
"          #.[.@XoX].e 7 g Z Z [ L H w 4 5 5 L O.4XbXpX&X*XwXpXvXvXyXcXCXmX4XJ $ d c c = = m D.!.HXr.Z 1.*.*X&XoX>.              ",
"          ..@.[.[.].&.Y 7 8 M F A A y : 3 2 5 $.)  XoX,X2XiXmXCXmXMXxXcXOX;.K # - c z * 8 u B E.E.1.6.oX*XOX|.}.;.              ",
"          ( ) +.=.).,.).%.4 7 k l A A 6 ; 5 a ' L X.>.>X3XxXVXVXmXMXlXOX;.o.4 $ $ % * w _ p w v S y.,X$XoX}.;. . .              ",
"          / ( ) ) &.'.[.`.=.~ J L | U.n.x A j 3 L P %.oX@X=XMXvXvX6X|.o.o.Y $ . @ 8 f W p 6 @ s b 1X2XoX;.` K `  .              ",
"          P / ( ( ~ +.).'.'.-.;.(.{.V S D j ' ' H H ^ @.[.@X#X=X=X_. . .E & x x 8 i _ w > @ @ N A.FXi.%.L ; ; U  .              ",
"            ) ) / ~ ) ) -.=.&.[.:X9XO.- - 5 {.qXP H Y ) +.#..X X>. .%.9.0.g n.!.T.f 6 > # u s.FXj.7.E 1 o X ;                   ",
"                ( J / ( ) ~ :.'.[.[.5 X o H $.$.I H J / ( ) @.=. . .*.r.9.h.a.U./.B + 6 4.1XFXf.i ! i w i                       ",
"                  ~ / ( ( ~ X.@.@.T : + + $.+X(.O.' p P ( ( ) o.o.$.9.C.Z i.1Xm b.s 7 i.FX1X5.W 7 : u W 1.1X                    ",
"                  4.Q ) ( K %.-.Y 2 7 q H +X+X+X(.| D 0.` / ( O.#.*.T.Q.b e W 0 k.B 1XFXa.p E _ % # i W 5.h.h.                  ",
"                  Q Q s.%.{ ,.9.m * q 2 U '.:X{. .y F D F { I o.t.E.J.D.s r ! 2.q.FX1X5.E W 0 s * # p 5.9.f.8.                  ",
"                t Q Q 6.t.Y R N S C 0 m U =.=.:.#.J a m F F N 2.n.D.m.n.1.&.&.s.FXf.1.! f v h v * + 4.y.y.8.1.!                 ",
"                r T Q E Y T Q t 0 C C = Y ) %.`.[.-.J 7 0 M S b G n.D 6.oX7X].{ 2.t p D c.k.k.b % + 1.u.u.6.1.i                 ",
"              4 e e r T T q T Q T 8 0 T [ Y ~ ).[.[.).~ r 7 f B N N 6.,X3XOX:.4 t 0 G.I.P.k.k.b % o p y.u.u.W 1                 ",
"                3 7 2 1 r 3 r B 0.Q T Q T Y ^ ) =.).=.,.).~ Y ^ R %.oX4XOX>.` 2 M v.H.L.M.k.k.b g 7 w 5.8.y.E                   ",
"                , , q 3 3 3 w C D T } Y T Y 3 / ) ) %.`.$X$X X$X&X3X4X X;.U O $ S.H.v.c.M.k.z.h % u W ] 4.] ]                   ",
"                + : , 1 1 q 9 x s , e Y 7 r 3 H ( ( ~ ).[.#X%X-X5X$X X%.K X $ h H.H.M.c.M.k.k.s X 6 W _ 1.1.5.                  ",
"                  o : : , 2 q s = > r 3 : 1 : H ( I ~ ) X.=..X X`._. .R : . & z.J.K.Z.m.c.l.z.= % % 6 p 1.8.8.                  ",
"                        + : 1 0 * 7 4 , : O O 3 K I K I ) ) -.#.>.o.~ p 9 @ - l.m.W.Y.Z.C.V.B.q.2.g * * u 9.2.w                 ",
"                          : : > > q r 3 : O O 4 : ^ { ( ( ( ) ) o. .{ p i 2 - l.W.Y.Z.C.N.V.B.B w.w._ % % 9 w 9                 ",
"                              o X : 3 1 : + , 4 , E d.%.( / I L ~ X.Q W ] 7 - l.C.Z.C.C.B.B.B.B.B.g.5.6 # < 7 8                 ",
"                                      : : : 3 3 Y e 4.s.t.) I U U J E 5.8._ g h n.N.N.N.V.B.B.A.A.a._ T 6 # 7 7 6               ",
"                                          : 3 1 T T Y ^ t.d.&.&.4.3 1.y.u.5.f u B B.B.V.V.A.A.g.9.p ] 8.E X 6 6                 ",
"                                            4 3 3 1 T T Y 6.i.i.4.1 4.u.y.8.T W _ _ q.g.g.w.2._ W 8.5.T                         ",
"                                            1 1 3 : 3 T } i.f.f.f.6.! 8.u.8.1 r W 1.5.w.a.4.E 5.y.5.E                           ",
"                                            : , , 3 7 3 e 1.i.u.6.5.r 4.y.6.3 O 6 ! u.8._ ] u.8.! 6                             ",
"                                              : 1 , 7 3 7 q T T T E t ! ] ! r O + > W u w ] 1.w                                 ",
"                                                  + : , 1 i W W W W w r ! t r O O + < 7 u w 2                                   ",
"                                                    o : , 7 w 7 < > > 1 4.4.3 X X + > 8 9 >                                     ",
"                                                        O > : > : > + + E ]         o 6 7                                       ",
"                                                                                      >                                         ",
"                                                                                                                                ",
"                                                                                                                                ",
"                                                                                                                                ",
"                                                                                                                                ",
"                                                                                                                                "
};
