/* XPM */
static char *_ada6562f6dc4047a9f9672b18e0b932DeIHvlLMPjCpQUef[] = {
/* columns rows colors chars-per-pixel */
"64 64 228 2 ",
"   c None",
".  c #0A0512",
"X  c #140B1B",
"o  c #08030E",
"O  c #1C1327",
"+  c #0D1232",
"@  c #26192B",
"#  c #2B1C34",
"$  c #2B1C35",
"%  c #301F39",
"&  c #29253A",
"*  c #32223E",
"=  c #38223D",
"-  c #11285B",
";  c #272647",
":  c #3A2846",
">  c #3A2C4A",
",  c #352846",
"<  c #283557",
"1  c #383254",
"2  c #3A3658",
"3  c #33324E",
"4  c #173871",
"5  c #273865",
"6  c #393C63",
"7  c #303D72",
"8  c #442D4D",
"9  c #4A324F",
"0  c #523D4C",
"q  c #422F52",
"w  c #443153",
"e  c #4C3454",
"r  c #4C355C",
"t  c #4D3A5D",
"y  c #463458",
"u  c #51375D",
"i  c #53395D",
"p  c #4B3B63",
"a  c #493E69",
"s  c #443E66",
"d  c #523B61",
"f  c #513760",
"g  c #39446A",
"h  c #2A4A7C",
"j  c #384778",
"k  c #2E5D7E",
"l  c #335378",
"z  c #2C416C",
"x  c #484259",
"c  c #554653",
"v  c #564955",
"b  c #52415D",
"n  c #594C5A",
"m  c #58434F",
"M  c #4A4167",
"N  c #49426C",
"B  c #41406E",
"V  c #544365",
"C  c #54446A",
"Z  c #5A456B",
"A  c #5C4B6E",
"S  c #574C64",
"D  c #575565",
"F  c #595262",
"G  c #555A6D",
"H  c #575668",
"J  c #474572",
"K  c #4B4773",
"L  c #4D4C74",
"P  c #454D7A",
"I  c #4B4D7A",
"U  c #474977",
"Y  c #554E75",
"T  c #5D4D73",
"R  c #504670",
"E  c #4C527D",
"W  c #485479",
"Q  c #555175",
"!  c #5D5374",
"~  c #525D73",
"^  c #54537C",
"/  c #5D557B",
"(  c #5D5A7C",
")  c #4D526B",
"_  c #634A6D",
"`  c #654766",
"'  c #614D72",
"]  c #635374",
"[  c #645579",
"{  c #63597D",
"}  c #6C5C7D",
"|  c #695878",
" . c #705A74",
".. c #51617A",
"X. c #526076",
"o. c #6E627C",
"O. c #71647D",
"+. c #2C4988",
"@. c #3A5888",
"#. c #365C9E",
"$. c #335381",
"%. c #3C618A",
"&. c #396691",
"*. c #3C739C",
"=. c #3C789F",
"-. c #2F6182",
";. c #3978A8",
":. c #326BAC",
">. c #435682",
",. c #4A5484",
"<. c #415A83",
"1. c #435D8A",
"2. c #4A5C8A",
"3. c #5C5C82",
"4. c #535888",
"5. c #495688",
"6. c #625D84",
"7. c #6B5D83",
"8. c #755F84",
"9. c #44618A",
"0. c #5C668A",
"q. c #596587",
"w. c #426592",
"e. c #45669A",
"r. c #446D9C",
"t. c #4B6695",
"y. c #566C93",
"u. c #5A6592",
"i. c #57789A",
"p. c #6C658C",
"a. c #666789",
"s. c #736284",
"d. c #766C83",
"f. c #7A6B87",
"g. c #73648B",
"h. c #7A658A",
"j. c #716A8C",
"k. c #7B6B8C",
"l. c #7D728C",
"z. c #7E7787",
"x. c #6B6993",
"c. c #6B6D9A",
"v. c #626F94",
"b. c #786D91",
"n. c #687696",
"m. c #7C7390",
"M. c #77769A",
"N. c #4473A3",
"B. c #4478A6",
"V. c #487CA1",
"C. c #597BA2",
"Z. c #577CB3",
"A. c #6B79A3",
"S. c #6874A4",
"D. c #737EA8",
"F. c #876D91",
"G. c #8B7293",
"H. c #847A92",
"J. c #897D95",
"K. c #8C7F98",
"L. c #887191",
"P. c #857EA1",
"I. c #3D8DB8",
"U. c #51839F",
"Y. c #4382AD",
"T. c #5885A8",
"R. c #418CB6",
"E. c #4997B8",
"W. c #5397AF",
"Q. c #7982A8",
"!. c #698EB4",
"~. c #7896BF",
"^. c #658BAB",
"/. c #54A1BB",
"(. c #4CA3BE",
"). c #66AABD",
"_. c #3596C7",
"`. c #3283C1",
"'. c #37A5CB",
"]. c #2EB9DA",
"[. c #3CB1D1",
"{. c #39BCDB",
"}. c #34A9D5",
"|. c #35B8E4",
" X c #419DC2",
".X c #5098C4",
"XX c #669DC4",
"oX c #709FC2",
"OX c #42A2C5",
"+X c #49ABC7",
"@X c #5CA9C8",
"#X c #5BB4C8",
"$X c #41BCD8",
"%X c #57A6D1",
"&X c #7CA9CA",
"*X c #66B5CC",
"=X c #68B9D7",
"-X c #7EB3D2",
";X c #35C2DF",
":X c #2EC8E3",
">X c #2FC6E0",
",X c #38C6E2",
"<X c #3AE6F5",
"1X c #4AC0DD",
"2X c #72C8DC",
"3X c #72D1DD",
"4X c #5DD7ED",
"5X c #48D2ED",
"6X c #42E5F1",
"7X c #55FDFF",
"8X c #41FCFF",
"9X c #68EDF4",
"0X c #61FFFF",
"qX c #6CFDFE",
"wX c #76FEFE",
"eX c #78FFFF",
"rX c #70F5F9",
"tX c #6EE2EB",
"yX c #8B8296",
"uX c #8C849A",
"iX c #878296",
"pX c #938D9D",
"aX c #97919F",
"sX c #8B8BA7",
"dX c #9A94A2",
"fX c #9094AF",
"gX c #82B0D1",
"hX c #81A1C2",
/* pixels */
"                                                                                                                                ",
"                                                                                                                                ",
"                                                                                                                                ",
"                                                                                                                                ",
"                                                                                                                                ",
"                                                                                                                                ",
"                                                                                                                                ",
"                                                                                                                                ",
"                                                                                                                                ",
"                                                                                                                                ",
"                                                                                                                                ",
"                                                                                                                                ",
"                                                                                                                                ",
"                                                                                                                                ",
"                                                                                                                                ",
"                                                                                                                                ",
"                                                                                                                                ",
"                                                                                                                                ",
"                                                                                                                                ",
"                                                                                                                                ",
"                                                                                                                                ",
"                                                                                                                                ",
"                                                                                                                                ",
"                                                            F.F.F.F.G.G.                                                        ",
"                                                    F.h.8.8.8.h.L.H.K.K.J.G.G.G.                                                ",
"                                                  s.7.} } } } 8.h.l.H.yXuXK.J.k.L.                                              ",
"                                    wXeXeX      !.6.} | [ [ / 3.6.a.a.d.f.k.k.s.x.~.      wXwXwX                                ",
"                                    eXeXwXwX  n.@Xv.0.' ;.].>X:X:X:X>X].'.t.} 0.v.*XP.  wXwXwXeX                                ",
"                                    eXeXwXwX).q.(.q.E ! OX8X0X0X0X0X7X7X<XC.] ^ a.*XsX3XwXwXeXeX                                ",
"                                    eXeXwXwX).9.(.( M M a.5X0XqXqXqXqX7X+Xo.p Z 0.@Xm.3XwXeXeXeX                                ",
"                                    wXwXwXwX/.-.(./ S 1 S T.<X<X6X6X<X1Xj.b b T q./.Q *XwXwXeXwX                                ",
"                                      eXeXwXE.&.W.Q ! V C 3.y.0.0.0.v.n.a.A ] T ^ W.x #XwXeXwX                                  ",
"                                              %.U.q.q.Q L L J N a a p p a C T ( 3.T.M                                           ",
"                                                U.9.P <.@.@.P J N a p p p p y r ~ ^.                                            ",
"                                                9.@.%.w.w.%.<.W J N s p p y p y y (                                             ",
"                                        -X&X    $.&.*.=.=.*.&.W U N a p p p r y 8 8     gXgX                                    ",
"                                      Q.oXoXt.W h h -.$.k k l g 6 2 1 > , : : , , : Q A.&XhXQ.                                  ",
"                                    p.c.D.D.B P ^ / ( / / ( ! { O.O.z.H.l.d.} ] T T Y Y fXfXM.g.                                ",
"                                      3.M.0.5 4.0.x.x.x.p.p.j.m.iXaXdXdXaXuXf.O.7.3.3.S H.uX!                                   ",
"                                      N I P I 4.u.c.x.x.x.x.j.m.iXpXaXdXaXuXk.o.[ / / z.F b d                                   ",
"                                    T Y I 4.,.C.=X!.c.c.x.x.j.m.z.H.pXdXaXuXH.O.[ [ T [ | z.g.h.                                ",
"                                  7.6.7.Y j V.tXeX*XS.S.c.x.j.s.) y.iXaXpXJ.d.| A Z Z p i l.yXg.k.                              ",
"                                  7.p.M.S.W.9XwXwX1X XE.T.i.3.p N 9.y.O. .S c i e y p w , [ yXl.p.s.                            ",
"                                g.p.x.~.2XwXwXwXrX$X+XOXI.B.P K ^ ^ l y e e e r r u f q , ] J.L.7.7.                            ",
"                                7.7.S.=XrXwXwXeX4X,X$X[.OXR.e.,.E I a p r p u d u f f q : [ J.s.8.[                             ",
"                              T 6.7.!.4XwXeXeX9X,X;X$X+XI.Y.e.5.I K a p p t p u u u f q * [ H.[ 8.' '                           ",
"                              R Y 3.XX5XwXqX4X|.|.{.[.'.E.B.e.,.U J a p p p u r r r u q , A f.d [ ' Z                           ",
"                              p f Y .X5XqX%X:.}.{.[.'.E.Y.r.2.,.U J a a p t u u r u r y 9 f ' C } d                             ",
"                                r Y .X_.%Xe.+.`.`.I.I.B.r.2.,.P K N p p t t u u e r r e e e d ' ' e                             ",
"                                _ _ y.N.Z.L 7 #.:.&.< ;.r.w.1.P K N a p t r 8 # 9 8 8 9     e ` ` `                             ",
"                                      {   M h #.;.l ; =.N.e.2.,.I K K C C C q @ u f i i     e `  .                              ",
"                                          N $.e.e.1 ; <.e.2.2.W R R C C C d : @ 8 f d d                                         ",
"                                          C a j 6 % < 5 7 s 2 M N p w w 8 : * % % 8 e i                                         ",
"                                            6 , * < 5 5 ; O X @     X X O @ * % $ # = e                                         ",
"                                          / I @.@.@.+.4 - + o @     X o . & i S t r f _                                         ",
"                                          [ 4.3.C.C.y.W z < & 3     & & & x ] O.o.' _ _                                         ",
"                                            x x ) ~ X.X.X.X.X.G G D D F F F v v c 0 0 m                                         ",
"                                              S ~ ~ ~ X.~ ~ ~ ~ G G F F F n v c v v m                                           ",
"                                                                                                                                ",
"                                                                                                                                ",
"                                                                                                                                ",
"                                                                                                                                ",
"                                                                                                                                ",
"                                                                                                                                "
};
