/* XPM */
static char *a3f80fa0e41e47bbf212d56b201244cdLJgaFKghUcl9dsEK[] = {
/* columns rows colors chars-per-pixel */
"64 64 227 2 ",
"   c None",
".  c #020101",
"X  c #0C0B0B",
"o  c #080807",
"O  c #100D0B",
"+  c #16110F",
"@  c #151313",
"#  c #1B1614",
"$  c #1D1A1B",
"%  c #161418",
"&  c #100F10",
"*  c #2C1617",
"=  c #221917",
"-  c #221C1B",
";  c #2B1C19",
":  c #241718",
">  c #3A1716",
",  c #2C221C",
"<  c #24201F",
"1  c #32251C",
"2  c #34291E",
"3  c #3B251B",
"4  c #211E20",
"5  c #252223",
"6  c #2A2323",
"7  c #2A2629",
"8  c #2C292D",
"9  c #352B23",
"0  c #342A2B",
"q  c #382C26",
"w  c #3E312C",
"e  c #3E3126",
"r  c #342E31",
"t  c #3D2E32",
"y  c #3B3334",
"u  c #3C363A",
"i  c #3A3337",
"p  c #57130C",
"a  c #421614",
"s  c #581A15",
"d  c #42241A",
"f  c #4B2618",
"g  c #552319",
"h  c #4E3318",
"j  c #762416",
"k  c #692718",
"l  c #4B2A2D",
"z  c #52272B",
"x  c #54282C",
"c  c #5A2A2D",
"v  c #44342D",
"b  c #48382F",
"n  c #5B342C",
"m  c #4D2D31",
"M  c #443533",
"N  c #4D3C34",
"B  c #423638",
"V  c #433A3D",
"C  c #493B3C",
"Z  c #4A3734",
"A  c #513435",
"S  c #513D34",
"D  c #543D3C",
"F  c #593E3D",
"G  c #513638",
"H  c #502F32",
"J  c #642D2E",
"K  c #64332C",
"L  c #67372D",
"P  c #773A2D",
"I  c #623C35",
"U  c #6A3C33",
"Y  c #6F3331",
"T  c #763833",
"R  c #55423A",
"E  c #5B453D",
"W  c #6B443B",
"Q  c #664238",
"!  c #75453B",
"~  c #684029",
"^  c #453D42",
"/  c #4B3E43",
"(  c #533F42",
")  c #4C4046",
"_  c #4D424A",
"`  c #464141",
"'  c #524144",
"]  c #5D4443",
"[  c #5D4A43",
"{  c #51454C",
"}  c #544A4E",
"|  c #554B48",
" . c #554A52",
".. c #594C52",
"X. c #5B5258",
"o. c #5E514D",
"O. c #634D44",
"+. c #694D46",
"@. c #644E4B",
"#. c #654B47",
"$. c #655046",
"%. c #66524B",
"&. c #69534E",
"*. c #6A584F",
"=. c #72554B",
"-. c #77564B",
";. c #6B5451",
":. c #6D5D58",
">. c #675756",
",. c #725A55",
"<. c #7C5F55",
"1. c #715C5B",
"2. c #705556",
"3. c #704F4A",
"4. c #7B645B",
"5. c #7E6B5E",
"6. c #786459",
"7. c #6E615C",
"8. c #665D65",
"9. c #69636B",
"0. c #766A63",
"q. c #7D6A64",
"w. c #6F6971",
"e. c #7A7175",
"r. c #832413",
"t. c #842D16",
"y. c #9A3314",
"u. c #902B09",
"i. c #AC3812",
"p. c #B0350F",
"a. c #813D38",
"s. c #B94D01",
"d. c #BB691C",
"f. c #86432C",
"g. c #914D2F",
"h. c #AC5E24",
"j. c #BE6A21",
"k. c #C6470B",
"l. c #D9490C",
"z. c #C75B00",
"x. c #DD5809",
"c. c #E84C08",
"v. c #EA5907",
"b. c #FF5D02",
"n. c #D36C00",
"m. c #D06400",
"M. c #DC7C00",
"N. c #D77300",
"B. c #CE7818",
"V. c #FE6401",
"C. c #FF6D00",
"Z. c #F46A04",
"A. c #FE7400",
"S. c #FF7C00",
"D. c #F67302",
"F. c #EA6607",
"G. c #C77220",
"H. c #8D5B44",
"J. c #9A634B",
"K. c #826254",
"L. c #846A5C",
"P. c #886859",
"I. c #9C715E",
"U. c #BA7F55",
"Y. c #AE714E",
"T. c #816E62",
"R. c #8C6F60",
"E. c #857265",
"W. c #8B7163",
"Q. c #867569",
"!. c #89776A",
"~. c #8A796D",
"^. c #9C7C6A",
"/. c #937666",
"(. c #8D7A70",
"). c #8D7C71",
"_. c #897974",
"`. c #907E73",
"'. c #A27760",
"]. c #D98113",
"[. c #E48A07",
"{. c #FF8400",
"}. c #FF8B00",
"|. c #FF9300",
" X c #FF9C00",
".X c #F29808",
"XX c #EC980B",
"oX c #FFA400",
"OX c #FFAB00",
"+X c #FFAE09",
"@X c #FFB300",
"#X c #FFB901",
"$X c #FEB40C",
"%X c #FEB311",
"&X c #F9AD17",
"*X c #DA832B",
"=X c #F7A927",
"-X c #EBA339",
";X c #FBB62B",
":X c #9B867A",
">X c #98857A",
",X c #B68667",
"<X c #AA8A74",
"1X c #AB8C78",
"2X c #B2917B",
"3X c #BA967C",
"4X c #AA8973",
"5X c #D89648",
"6X c #D48F52",
"7X c #F0B050",
"8X c #D7A46B",
"9X c #9C8A81",
"0X c #AA9586",
"qX c #A79488",
"wX c #BC9C84",
"eX c #B29989",
"rX c #A18E82",
"tX c #BBA594",
"yX c #CFAB8E",
"uX c #C5A387",
"iX c #D5AE8F",
"pX c #C9AB92",
"aX c #D2AF90",
"sX c #DBB798",
"dX c #E2BC9A",
"fX c #E9C19E",
"gX c #EBC3A0",
/* pixels */
"                                                                                                                                ",
"                                                                                                                                ",
"                                                                                                                                ",
"                                                                                                                                ",
"                                                                                                                                ",
"                                                                                                                                ",
"                                                                                                                                ",
"                                                              o.                                                                ",
"                                                            :.>X>Xo.                                                            ",
"                                                          0.>X:X).~.o.                                                          ",
"                                                      { 0.).>XE.5.L.L.*.                                                        ",
"                                                    >.E.`.~.T.T.4.4.K.T.7.`                                                     ",
"                                                  :.Q.~.(.~.E.T.E.5.T.E.E.5.|                                                   ",
"                                              ` 7.5.q.Q.Q.~.~.~.Q.E.E.T.5.5.5.7.                                                ",
"                                            8 9.q.4.5.Q.E.Q.Q.Q.Q.Q.Q.>X~.!.2X0Xo.                                              ",
"                                            ^ X.w.e.5.L.W.!.(.~.!.Q.~.:X0XtXqX0.*.Z                                             ",
"                                          u ` {  .w.e._._._.`.(.(._.(.qXtX>X7.&.;.%.w                                           ",
"                                        r ^ ^ _ {  .8.e._.q.E._.).9XeXtX(.:.;.&.&.;.[ 9                                         ",
"                                      7 ^ ^ _ _ {  . .X.w.e.0._.>XpXeXq.;.;.;.%.%.%.&.[                                         ",
"                                    4 u ^ ^ ^ _ { { {  .X.9.e.>XtX9X4.;.;.;.%.%.%.%.%.;.N                                       ",
"                                    7 B u V ^ ^ { { } { {  .9.9X`.:.;.;.&.&.%.%.%.$.$.$.N                                       ",
"                                    - r u ^ ^ /  .} { { { {  .1.>.;.&.;.&.&.%.%.$.O.E R 9                                       ",
"                                    # 4 i u ^ / { { { / _ { ..;.>.&.@.&.*.&.$.$.O.E b 2 1                                       ",
"                                    > : 5 i V ^ { { { _ { { ..2.;.%.&.%.%.$.$.E R v 2 d g                                       ",
"                                    p s * 5 r B ) ) { ) ' { ..2.&.%.%.%.$.$.E R e 2 f j p                                       ",
"                                      j j * - 0 C / ) ' { { X.,.%.%.$.$.O.R b 9 , g i.y.                                        ",
"                                      s.l.j * : 0 M / ) { | >.:.%.$.O.O.E b 2 3 k k.D.s.                                        ",
"                                      k.b.c.r.* $ 6 y C /  .8.2.+.O.O.R b 2 3 t.l.S.}.s.                                        ",
"                                      z.V.b.c.r.> : - 9 M  .8.2.%.E S e 2 f y.v.S.{.{.z.                                        ",
"                                      m.C.V.V.c.i.s * : 6 ^ >.3.O.N 9 2 g i.Z.{.{.{.{.m.                                        ",
"                                      n.S.C.V.V.b.k.j a : 6 B N v 2 3 j k.D.{.{.{.}.}.N.                                        ",
"                                      N.{.A.C.C.C.C.v.p.s ; 6 1 1 f t.x.{.{.}.{.}.}.}.N.                                        ",
"                                      M.{.S.C.V.C.A.A.V.l.t.s 3 g y.F.{.}.}.}.}.}.}.}.N.                                        ",
"                                      [.|.S.A.C.A.S.A.A.C.v.p.i.k.D.}.}.|.|.}.}.|.|.|.[.                                        ",
"                                      [. X}.S.D.A.A.A.A.A.A.A.C.{.}.}.|.|.|.|. X X|. X[.h                                       ",
"                                    h [.oX X}.{.S.S.S.S.S.S.S.{.{.{.{.}.}.|. XoXoX XoX.XH.2                                     ",
"                                  % ~ .XoXoX|.}.{.{.S.S.{.S.{.}.{.S.{.}.|. XoXOXoXoXOX&X,XQ 1                                   ",
"                                $ 0 L B. XoX X}.}.}.{.S.S.S.}.}.}.{.{.}. XoXOXOX@XOX+X7X,XQ N 0                                 ",
"                              6 i t z T j.|. X|.}.{.}.{.{.{.}.|.}.{.}.|.oXOXOX#X#X%X7X,X! Q +.$.N                               ",
"                            5 ^ C M l x T h..XoX|.}.|.}.}.|.|. X|.}.}. XOXOX#X#X&X8XI.W E -.<XW.<.v                             ",
"                          $ u ) ( ( G l x J g.[.oX|. X|.}.|. XoX X|.|.oXOX#X#X;X8XP.U I W.2XeX2XR.[ -                           ",
"                          4 V / ( { ( G l l J a.B.oXoX X|. XoXoX X|. XOX#X#X-XU.-.#.W /.aXuX2X^.-.[ ;                           ",
"                          % r w B / ( F G l z c Y d. XOXoX XoXOXoX XoX@X$X5XJ.L I =.4XyXpX1X/.=.[ e O                           ",
"                            @ X 4 C D ( F A l z x J h..XoXoXOX@XOXOXOX=X6XH.L K W 2XsXyX4XL.$.N e &                             ",
"                                X 8 C ( ] F G A x x J g.[.oXoX+XOXOX=XU.f.I K +.4XdXsX2X4.+.Z + X                               ",
"                                . $ y C ( ] ] F G x l c f.].oX%X%X-XY.T n U K.uXdXsX3X4.+.S ,                                   ",
"                                . X 7 u Z ( ] #.F F A l c P G.B.6XJ.U n U '.iXdXfXwX4.R 9 ,                                     ",
"                                  . & 4 t M ( #.] #.E G m x Y a.T U n -.3XdXgXdX2XK.#.v                                         ",
"                                  . . o # y C [ @.#.#.[ ( H c J K I P.yXdXsXuX^.-.O.M #                                         ",
"                                    . . o % $ C ] ] ] +.@.] 3.W 3.^.iXsXyX<XL.=.Q v #                                           ",
"                                      . . . o 5 w Z D @.;.@.4.^.2XiXaXwX/.-.$.R 7                                               ",
"                                        . . . . o 6 w | @.@.T.rXpXiX1XK.+.E b -                                                 ",
"                                            . . . o - B ' @.q.`.wX^.=.E R 1 &                                                   ",
"                                              . . . o @ 6 ' 1.<.6.+.R , #                                                       ",
"                                                    . . X r >.3.+.N ,                                                           ",
"                                                          @ 0 M w =                                                             ",
"                                                              X                                                                 ",
"                                                                                                                                ",
"                                                                                                                                ",
"                                                                                                                                ",
"                                                                                                                                ",
"                                                                                                                                ",
"                                                                                                                                ",
"                                                                                                                                "
};
